# xmcd
#
# Track frame offsets: 
#        150
#        16585
#        35380
#        53476
#        72213
#        86050
#        105563
#        117709
#        131163
#        145383
#        159811
#        173717
#        189029
#        203070
#        215953
#        233867
#
# Disc length: 3379 seconds
#
# Revision: 3
# Processed by: cddbd v1.5.2PL0 Copyright (c) Steve Scherf et al.
# Submitted via: ExactAudioCopy v0.99pb4
#
DISCID=d80d3110
DTITLE=Various Artist - Best Jazz 100 - Legends Of Jazz [CD6)
DYEAR=2006
DGENRE=Jazz
TTITLE0=Albert Ammons - Boogie Woogie Stomp
TTITLE1=Sidney Bechet - Summertime
TTITLE2=Meade Lux Lewis - Chicago Flyer
TTITLE3=Edmond Hall's Celeste Quartet - Profoundly Blue
TTITLE4=Ike Quebec - Topsy
TTITLE5=Jimmy Hamilton and The Duke's Men - Blues For Clarinets
TTITLE6=Babs Gonzales' Three Bips And A Bop - Lop-Pow
TTITLE7=Tadd Dameron - Our Delight
TTITLE8=Howard McGhee and Fats Navarro - Boperation
TTITLE9=Thelonious Monk - 'Round Midnight
TTITLE10=Bud Powell - Bouncing With Bud
TTITLE11=Wynton Kelly - Born To Be Blue
TTITLE12=Milt Jackson - Bags' Groove
TTITLE13=Horace Silver - Safari
TTITLE14=Lou Donaldson and Clifford Brown - Carvin' The Rock
TTITLE15=Herbie Nichols - Lady Sings The Blues
EXTD=YEAR: 2006
EXTT0=
EXTT1=
EXTT2=
EXTT3=
EXTT4=
EXTT5=
EXTT6=
EXTT7=
EXTT8=
EXTT9=
EXTT10=
EXTT11=
EXTT12=
EXTT13=
EXTT14=
EXTT15=
PLAYORDER=
